<?xml version="1.0" encoding="utf-8"?>
<!-- Generator: Adobe Illustrator 24.3.0, SVG Export Plug-In . SVG Version: 6.00 Build 0)  -->
<svg version="1.1" id="Layer_1" xmlns="http://www.w3.org/2000/svg" xmlns:xlink="http://www.w3.org/1999/xlink" x="0px" y="0px"
	 viewBox="0 0 907.76 441.88" style="enable-background:new 0 0 907.76 441.88;" xml:space="preserve">
<style type="text/css">
	.st0{fill:#D52129;}
	.st1{fill:#931B50;}
	.st2{fill:#EA4D24;}
	.st3{fill:url(#SVGID_1_);}
	.st4{fill:url(#SVGID_2_);}
	.st5{fill:url(#SVGID_3_);}
	.st6{fill:url(#SVGID_4_);}
	.st7{fill:url(#SVGID_5_);}
	.st8{fill:url(#SVGID_6_);}
	.st9{fill:url(#SVGID_7_);}
	.st10{fill:url(#SVGID_8_);}
	.st11{fill:url(#SVGID_9_);}
	.st12{fill:url(#SVGID_10_);}
	.st13{fill:url(#SVGID_11_);}
	.st14{fill:url(#SVGID_12_);}
	.st15{fill:url(#SVGID_13_);}
	.st16{fill:#243B7A;}
	.st17{fill:#232C59;}
	.st18{fill:#6E973F;}
	.st19{fill:#E9AD3E;}
	.st20{fill:#F6DF37;}
	.st21{fill:#CF4F2E;}
	.st22{fill:#2C5E3A;}
	.st23{fill:#4570B2;}
	.st24{fill:#CF377A;}
	.st25{fill:#5A9597;}
	.st26{fill:#D06828;}
	.st27{fill:#BC1F58;}
	.st28{fill:#FFFFFF;}
</style>
<g>
	<g>
		<path class="st0" d="M279.83,384.17c-2.15-3.51-2.28-8.55-0.39-15.11l1.34-4.64l12.05-0.02l-1.6,5.56
			c-1.52,5.25-0.07,7.88,4.33,7.87c2.16,0,3.99-0.65,5.47-1.92c1.49-1.28,2.64-3.34,3.47-6.2c0.98-3.4,1.07-6.39,0.27-8.98
			c-0.8-2.58-2.76-5.69-5.88-9.31c-3.91-4.62-6.37-8.81-7.38-12.55c-1-3.74-0.83-7.97,0.53-12.68c1.85-6.41,4.9-11.38,9.16-14.9
			c4.26-3.52,9.47-5.29,15.65-5.3c6.1-0.01,10.21,1.74,12.32,5.25c2.11,3.51,2.22,8.55,0.33,15.11l-0.97,3.36l-12.05,0.02l1.2-4.17
			c0.8-2.78,0.85-4.81,0.13-6.08c-0.71-1.27-2.11-1.91-4.2-1.9c-4.25,0.01-7.12,2.6-8.61,7.78c-0.85,2.94-0.85,5.68,0,8.22
			c0.85,2.55,2.83,5.63,5.95,9.25c3.99,4.62,6.44,8.83,7.36,12.61c0.92,3.78,0.64,8.22-0.83,13.32c-1.92,6.65-5.03,11.75-9.34,15.31
			c-4.31,3.56-9.59,5.35-15.84,5.36C286.14,389.43,281.98,387.68,279.83,384.17z"/>
		<path class="st0" d="M342.58,307.08l18.76-0.04c6.33-0.01,10.59,1.68,12.77,5.07c2.19,3.39,2.33,8.38,0.44,14.94l-2.31,8
			c-1.9,6.57-4.92,11.55-9.06,14.96c-4.15,3.41-9.39,5.12-15.72,5.13l-6.02,0.01l-9.53,33.03l-12.74,0.03L342.58,307.08z
			 M350.82,343.55c2.08,0,3.82-0.59,5.19-1.75c1.38-1.16,2.47-3.13,3.27-5.91l2.77-9.62c0.8-2.78,0.85-4.75,0.14-5.91
			c-0.71-1.16-2.1-1.73-4.19-1.73l-6.02,0.01l-7.19,24.92L350.82,343.55z"/>
		<path class="st0" d="M387.29,306.99l18.88-0.04c6.56-0.01,10.91,1.5,13.04,4.55c2.13,3.05,2.28,7.74,0.46,14.07l-1.44,4.98
			c-2.43,8.42-6.75,13.76-12.95,16.01l-0.07,0.23c2.82,0.92,4.46,2.81,4.91,5.67c0.45,2.86-0.02,6.68-1.4,11.47l-4.11,14.25
			c-0.67,2.32-1.13,4.19-1.39,5.62c-0.26,1.43-0.28,2.84-0.06,4.23l-12.97,0.03c-0.08-1.31-0.04-2.55,0.14-3.71
			c0.18-1.16,0.71-3.25,1.57-6.26l4.28-14.83c1.07-3.71,1.22-6.29,0.45-7.76c-0.78-1.46-2.63-2.2-5.56-2.19l-4.4,0.01l-10.03,34.77
			l-12.74,0.03L387.29,306.99z M394.64,341.72c2.55,0,4.65-0.67,6.3-1.98c1.65-1.32,2.92-3.52,3.82-6.61l1.81-6.26
			c0.85-2.94,0.94-5.06,0.28-6.37c-0.66-1.31-2.12-1.96-4.35-1.96l-5.79,0.01L390,341.73L394.64,341.72z"/>
		<path class="st0" d="M433.97,306.9l12.74-0.03l-23.4,81.12l-12.74,0.03L433.97,306.9z"/>
		<path class="st0" d="M456.21,306.85l15.98-0.03l-1.61,48.53h0.23l14.01-48.56l11.35-0.02l-23.4,81.12l-13.09,0.03l1.79-59.19
			h-0.23l-17.08,59.22l-11.35,0.02L456.21,306.85z"/>
		<path class="st0" d="M512.28,318.32l-13.32,0.03l3.34-11.59l39.38-0.08l-3.34,11.59l-13.32,0.03l-20.06,69.54l-12.74,0.03
			L512.28,318.32z"/>
	</g>
	<g>
		<g>
			<path class="st1" d="M521.71,367.76c3.53-12.69,8.57-23.59,15.14-32.69c6.56-9.1,16.6-19.21,30.11-30.34
				c13.34-11.12,23.08-20.6,29.21-28.43c6.12-7.83,10.36-15.97,12.72-24.44c2.12-7.62,2.36-12.89,0.74-15.82
				c-1.62-2.93-4.8-4.37-9.52-4.32c-9.61,0.11-16.04,6.01-19.29,17.68l-5.29,19.04l-26.31,0.31l4.8-17.26
				c4-14.38,10.61-25.47,19.83-33.25c9.22-7.78,20.58-11.76,34.07-11.92c13.49-0.16,22.71,3.57,27.65,11.18
				c4.94,7.62,5.42,18.62,1.42,33c-3.01,10.83-8.52,21.44-16.53,31.82c-8.01,10.39-20.2,22.34-36.56,35.85
				c-10.71,8.9-18.26,16.12-22.66,21.65c-4.4,5.54-7.46,11.43-9.2,17.69l-1.06,3.81l52.87-0.62l-7.05,25.38l-80.44,0.95
				L521.71,367.76z"/>
			<path class="st1" d="M629.18,376.6c-5.09-7.7-5.66-18.66-1.71-32.87l25.96-93.41c3.95-14.22,10.63-25.26,20.05-33.13
				c9.41-7.87,20.95-11.89,34.61-12.05s23.03,3.61,28.12,11.31c5.08,7.7,5.66,18.65,1.71,32.87l-25.96,93.41
				c-3.95,14.21-10.64,25.26-20.05,33.13c-9.42,7.87-20.95,11.89-34.61,12.05C643.65,388.07,634.27,384.3,629.18,376.6z
				 M683.65,344.84l26.95-96.97c3.25-11.68,0.06-17.46-9.55-17.34s-16.04,6.01-19.29,17.68l-26.95,96.97
				c-3.24,11.68-0.06,17.46,9.55,17.34C673.97,362.41,680.4,356.52,683.65,344.84z"/>
			<path class="st1" d="M730.12,375.41c-5.09-7.7-5.66-18.66-1.71-32.87l25.96-93.41c3.95-14.22,10.63-25.26,20.05-33.13
				c9.41-7.87,20.95-11.89,34.61-12.05c13.66-0.16,23.03,3.61,28.12,11.31c5.09,7.7,5.66,18.65,1.71,32.87l-25.96,93.41
				c-3.95,14.21-10.64,25.26-20.05,33.13c-9.42,7.87-20.95,11.89-34.61,12.05C744.58,386.88,735.2,383.11,730.12,375.41z
				 M784.58,343.65l26.95-96.97c3.25-11.68,0.06-17.46-9.55-17.34c-9.61,0.11-16.04,6.01-19.29,17.68l-26.95,96.97
				c-3.24,11.68-0.06,17.46,9.55,17.34C774.91,361.22,781.34,355.32,784.58,343.65z"/>
		</g>
	</g>
	<g>
		<g>
			<path class="st2" d="M532.75,367.76c3.53-12.69,8.57-23.59,15.14-32.69c6.56-9.1,16.6-19.21,30.11-30.34
				c13.34-11.12,23.08-20.6,29.21-28.43c6.12-7.83,10.36-15.97,12.72-24.44c2.12-7.62,2.36-12.89,0.74-15.82
				c-1.62-2.93-4.8-4.37-9.52-4.32c-9.61,0.11-16.04,6.01-19.29,17.68l-5.29,19.04l-26.31,0.31l4.8-17.26
				c4-14.38,10.61-25.46,19.83-33.25c9.22-7.78,20.58-11.76,34.07-11.92c13.49-0.16,22.71,3.57,27.65,11.18
				c4.94,7.62,5.42,18.62,1.42,33c-3.01,10.83-8.52,21.44-16.53,31.82c-8.01,10.39-20.2,22.34-36.56,35.85
				c-10.71,8.9-18.26,16.12-22.66,21.65c-4.4,5.54-7.46,11.43-9.2,17.69l-1.06,3.81l52.87-0.63l-7.05,25.38l-80.44,0.95
				L532.75,367.76z"/>
			<path class="st2" d="M640.22,376.61c-5.09-7.7-5.66-18.66-1.71-32.87l25.96-93.41c3.95-14.22,10.63-25.26,20.05-33.13
				c9.41-7.87,20.95-11.89,34.61-12.05c13.66-0.16,23.03,3.61,28.12,11.31c5.08,7.7,5.66,18.65,1.71,32.87L723,342.74
				c-3.95,14.21-10.64,25.26-20.05,33.13c-9.42,7.87-20.95,11.89-34.61,12.05C654.68,388.07,645.3,384.31,640.22,376.61z
				 M694.68,344.84l26.95-96.97c3.25-11.68,0.06-17.46-9.55-17.34c-9.61,0.11-16.04,6.01-19.29,17.68l-26.95,96.97
				c-3.24,11.68-0.06,17.46,9.55,17.34C685.01,362.41,691.44,356.52,694.68,344.84z"/>
			<path class="st2" d="M741.15,375.41c-5.09-7.7-5.66-18.66-1.71-32.87l25.96-93.41c3.95-14.21,10.63-25.26,20.05-33.13
				c9.41-7.87,20.95-11.89,34.61-12.05c13.66-0.16,23.03,3.61,28.12,11.31c5.09,7.7,5.66,18.65,1.71,32.87l-25.96,93.41
				c-3.95,14.21-10.64,25.26-20.05,33.13c-9.42,7.87-20.95,11.89-34.61,12.05C755.62,386.88,746.24,383.11,741.15,375.41z
				 M795.62,343.65l26.95-96.97c3.25-11.68,0.06-17.46-9.55-17.34c-9.61,0.11-16.04,6.01-19.29,17.68l-26.95,96.97
				c-3.24,11.68-0.06,17.46,9.55,17.34C785.94,361.22,792.37,355.33,795.62,343.65z"/>
		</g>
	</g>
	<g>
		<g>
			<g>
				
					<linearGradient id="SVGID_1_" gradientUnits="userSpaceOnUse" x1="131.7497" y1="140.0896" x2="376.7749" y2="140.0896" gradientTransform="matrix(1 5.685041e-03 -5.685041e-03 1 -4.7405 6.4534)">
					<stop  offset="0" style="stop-color:#FFFFFF;stop-opacity:0"/>
					<stop  offset="0.107" style="stop-color:#FAFCFD;stop-opacity:0.107"/>
					<stop  offset="0.2404" style="stop-color:#EAF2F9;stop-opacity:0.2404"/>
					<stop  offset="0.3878" style="stop-color:#D1E3F1;stop-opacity:0.3878"/>
					<stop  offset="0.5454" style="stop-color:#ADCDE6;stop-opacity:0.5454"/>
					<stop  offset="0.7111" style="stop-color:#80B1D9;stop-opacity:0.7111"/>
					<stop  offset="0.8809" style="stop-color:#498FC8;stop-opacity:0.8809"/>
					<stop  offset="1" style="stop-color:#1E75BB"/>
				</linearGradient>
				<polygon class="st3" points="126.18,153.38 371.2,154.77 371.27,142.59 126.25,141.2 				"/>
				
					<linearGradient id="SVGID_2_" gradientUnits="userSpaceOnUse" x1="131.7497" y1="167.3261" x2="376.7749" y2="167.3261" gradientTransform="matrix(1 5.685041e-03 -5.685041e-03 1 -4.7405 6.4534)">
					<stop  offset="0" style="stop-color:#FFFFFF;stop-opacity:0"/>
					<stop  offset="0.107" style="stop-color:#FAFCFD;stop-opacity:0.107"/>
					<stop  offset="0.2404" style="stop-color:#EAF2F9;stop-opacity:0.2404"/>
					<stop  offset="0.3878" style="stop-color:#D1E3F1;stop-opacity:0.3878"/>
					<stop  offset="0.5454" style="stop-color:#ADCDE6;stop-opacity:0.5454"/>
					<stop  offset="0.7111" style="stop-color:#80B1D9;stop-opacity:0.7111"/>
					<stop  offset="0.8809" style="stop-color:#498FC8;stop-opacity:0.8809"/>
					<stop  offset="1" style="stop-color:#1E75BB"/>
				</linearGradient>
				<polygon class="st4" points="126.03,178.34 371.06,179.74 371.1,172.1 126.08,170.71 				"/>
				
					<linearGradient id="SVGID_3_" gradientUnits="userSpaceOnUse" x1="131.7497" y1="180.3684" x2="376.7749" y2="180.3684" gradientTransform="matrix(1 5.685041e-03 -5.685041e-03 1 -4.7405 6.4534)">
					<stop  offset="0" style="stop-color:#FFFFFF;stop-opacity:0"/>
					<stop  offset="0.107" style="stop-color:#FAFCFD;stop-opacity:0.107"/>
					<stop  offset="0.2404" style="stop-color:#EAF2F9;stop-opacity:0.2404"/>
					<stop  offset="0.3878" style="stop-color:#D1E3F1;stop-opacity:0.3878"/>
					<stop  offset="0.5454" style="stop-color:#ADCDE6;stop-opacity:0.5454"/>
					<stop  offset="0.7111" style="stop-color:#80B1D9;stop-opacity:0.7111"/>
					<stop  offset="0.8809" style="stop-color:#498FC8;stop-opacity:0.8809"/>
					<stop  offset="1" style="stop-color:#1E75BB"/>
				</linearGradient>
				<polygon class="st5" points="125.96,191.39 370.98,192.78 371.02,185.14 126,183.75 				"/>
				
					<linearGradient id="SVGID_4_" gradientUnits="userSpaceOnUse" x1="202.542" y1="190.9148" x2="447.5672" y2="190.9148" gradientTransform="matrix(1 5.685041e-03 -5.685041e-03 1 -4.7405 6.4534)">
					<stop  offset="0" style="stop-color:#FFFFFF;stop-opacity:0"/>
					<stop  offset="0.107" style="stop-color:#FAFCFD;stop-opacity:0.107"/>
					<stop  offset="0.2404" style="stop-color:#EAF2F9;stop-opacity:0.2404"/>
					<stop  offset="0.3878" style="stop-color:#D1E3F1;stop-opacity:0.3878"/>
					<stop  offset="0.5454" style="stop-color:#ADCDE6;stop-opacity:0.5454"/>
					<stop  offset="0.7111" style="stop-color:#80B1D9;stop-opacity:0.7111"/>
					<stop  offset="0.8809" style="stop-color:#498FC8;stop-opacity:0.8809"/>
					<stop  offset="1" style="stop-color:#1E75BB"/>
				</linearGradient>
				<polygon class="st6" points="196.7,201.17 441.72,202.56 441.75,197.26 196.73,195.87 				"/>
				
					<linearGradient id="SVGID_5_" gradientUnits="userSpaceOnUse" x1="348.1066" y1="182.0416" x2="447.5672" y2="182.0416" gradientTransform="matrix(1 5.685041e-03 -5.685041e-03 1 -4.7405 6.4534)">
					<stop  offset="0" style="stop-color:#FFFFFF;stop-opacity:0"/>
					<stop  offset="0.107" style="stop-color:#FAFCFD;stop-opacity:0.107"/>
					<stop  offset="0.2404" style="stop-color:#EAF2F9;stop-opacity:0.2404"/>
					<stop  offset="0.3878" style="stop-color:#D1E3F1;stop-opacity:0.3878"/>
					<stop  offset="0.5454" style="stop-color:#ADCDE6;stop-opacity:0.5454"/>
					<stop  offset="0.7111" style="stop-color:#80B1D9;stop-opacity:0.7111"/>
					<stop  offset="0.8809" style="stop-color:#498FC8;stop-opacity:0.8809"/>
					<stop  offset="1" style="stop-color:#1E75BB"/>
				</linearGradient>
				<polygon class="st7" points="342.31,193.12 441.77,193.69 441.8,188.39 342.34,187.82 				"/>
				
					<linearGradient id="SVGID_6_" gradientUnits="userSpaceOnUse" x1="204.0816" y1="199.7061" x2="449.1068" y2="199.7061" gradientTransform="matrix(1 5.685041e-03 -5.685041e-03 1 -4.7405 6.4534)">
					<stop  offset="0" style="stop-color:#FFFFFF;stop-opacity:0"/>
					<stop  offset="0.107" style="stop-color:#FAFCFD;stop-opacity:0.107"/>
					<stop  offset="0.2404" style="stop-color:#EAF2F9;stop-opacity:0.2404"/>
					<stop  offset="0.3878" style="stop-color:#D1E3F1;stop-opacity:0.3878"/>
					<stop  offset="0.5454" style="stop-color:#ADCDE6;stop-opacity:0.5454"/>
					<stop  offset="0.7111" style="stop-color:#80B1D9;stop-opacity:0.7111"/>
					<stop  offset="0.8809" style="stop-color:#498FC8;stop-opacity:0.8809"/>
					<stop  offset="1" style="stop-color:#1E75BB"/>
				</linearGradient>
				<polygon class="st8" points="198.19,210.23 443.21,211.63 443.24,205.79 198.22,204.4 				"/>
				
					<linearGradient id="SVGID_7_" gradientUnits="userSpaceOnUse" x1="95.3083" y1="249.1962" x2="282.0153" y2="249.1962" gradientTransform="matrix(1 5.685041e-03 -5.685041e-03 1 -4.7405 6.4534)">
					<stop  offset="0" style="stop-color:#FFFFFF;stop-opacity:0"/>
					<stop  offset="0.107" style="stop-color:#FAFCFD;stop-opacity:0.107"/>
					<stop  offset="0.2404" style="stop-color:#EAF2F9;stop-opacity:0.2404"/>
					<stop  offset="0.3878" style="stop-color:#D1E3F1;stop-opacity:0.3878"/>
					<stop  offset="0.5454" style="stop-color:#ADCDE6;stop-opacity:0.5454"/>
					<stop  offset="0.7111" style="stop-color:#80B1D9;stop-opacity:0.7111"/>
					<stop  offset="0.8809" style="stop-color:#498FC8;stop-opacity:0.8809"/>
					<stop  offset="1" style="stop-color:#1E75BB"/>
				</linearGradient>
				<polygon class="st9" points="89.13,260.01 275.83,261.07 275.88,253.43 89.17,252.37 				"/>
				
					<linearGradient id="SVGID_8_" gradientUnits="userSpaceOnUse" x1="95.3083" y1="295.3963" x2="217.821" y2="295.3963" gradientTransform="matrix(1 5.685041e-03 -5.685041e-03 1 -4.7405 6.4534)">
					<stop  offset="0" style="stop-color:#FFFFFF;stop-opacity:0"/>
					<stop  offset="0.107" style="stop-color:#FAFCFD;stop-opacity:0.107"/>
					<stop  offset="0.2404" style="stop-color:#EAF2F9;stop-opacity:0.2404"/>
					<stop  offset="0.3878" style="stop-color:#D1E3F1;stop-opacity:0.3878"/>
					<stop  offset="0.5454" style="stop-color:#ADCDE6;stop-opacity:0.5454"/>
					<stop  offset="0.7111" style="stop-color:#80B1D9;stop-opacity:0.7111"/>
					<stop  offset="0.8809" style="stop-color:#498FC8;stop-opacity:0.8809"/>
					<stop  offset="1" style="stop-color:#1E75BB"/>
				</linearGradient>
				<polygon class="st10" points="88.87,306.2 211.38,306.9 211.42,299.27 88.91,298.57 				"/>
				
					<linearGradient id="SVGID_9_" gradientUnits="userSpaceOnUse" x1="61.8479" y1="318.2004" x2="169.0436" y2="318.2004" gradientTransform="matrix(1 5.685041e-03 -5.685041e-03 1 -4.7405 6.4534)">
					<stop  offset="0" style="stop-color:#FFFFFF;stop-opacity:0"/>
					<stop  offset="0.107" style="stop-color:#FAFCFD;stop-opacity:0.107"/>
					<stop  offset="0.2404" style="stop-color:#EAF2F9;stop-opacity:0.2404"/>
					<stop  offset="0.3878" style="stop-color:#D1E3F1;stop-opacity:0.3878"/>
					<stop  offset="0.5454" style="stop-color:#ADCDE6;stop-opacity:0.5454"/>
					<stop  offset="0.7111" style="stop-color:#80B1D9;stop-opacity:0.7111"/>
					<stop  offset="0.8809" style="stop-color:#498FC8;stop-opacity:0.8809"/>
					<stop  offset="1" style="stop-color:#1E75BB"/>
				</linearGradient>
				<polygon class="st11" points="55.28,327.71 162.48,328.32 162.51,322.9 55.31,322.29 				"/>
				
					<linearGradient id="SVGID_10_" gradientUnits="userSpaceOnUse" x1="93.6955" y1="260.4666" x2="338.7207" y2="260.4666" gradientTransform="matrix(1 5.685041e-03 -5.685041e-03 1 -4.7405 6.4534)">
					<stop  offset="0" style="stop-color:#FFFFFF;stop-opacity:0"/>
					<stop  offset="0.107" style="stop-color:#FAFCFD;stop-opacity:0.107"/>
					<stop  offset="0.2404" style="stop-color:#EAF2F9;stop-opacity:0.2404"/>
					<stop  offset="0.3878" style="stop-color:#D1E3F1;stop-opacity:0.3878"/>
					<stop  offset="0.5454" style="stop-color:#ADCDE6;stop-opacity:0.5454"/>
					<stop  offset="0.7111" style="stop-color:#80B1D9;stop-opacity:0.7111"/>
					<stop  offset="0.8809" style="stop-color:#498FC8;stop-opacity:0.8809"/>
					<stop  offset="1" style="stop-color:#1E75BB"/>
				</linearGradient>
				<polygon class="st12" points="87.46,269.36 332.48,270.75 332.5,266.93 87.48,265.54 				"/>
				
					<linearGradient id="SVGID_11_" gradientUnits="userSpaceOnUse" x1="131.7497" y1="117.0476" x2="376.7749" y2="117.0476" gradientTransform="matrix(1 5.685041e-03 -5.685041e-03 1 -4.7405 6.4534)">
					<stop  offset="0" style="stop-color:#FFFFFF;stop-opacity:0"/>
					<stop  offset="0.107" style="stop-color:#FAFCFD;stop-opacity:0.107"/>
					<stop  offset="0.2404" style="stop-color:#EAF2F9;stop-opacity:0.2404"/>
					<stop  offset="0.3878" style="stop-color:#D1E3F1;stop-opacity:0.3878"/>
					<stop  offset="0.5454" style="stop-color:#ADCDE6;stop-opacity:0.5454"/>
					<stop  offset="0.7111" style="stop-color:#80B1D9;stop-opacity:0.7111"/>
					<stop  offset="0.8809" style="stop-color:#498FC8;stop-opacity:0.8809"/>
					<stop  offset="1" style="stop-color:#1E75BB"/>
				</linearGradient>
				<polygon class="st13" points="126.33,125.97 371.35,127.36 371.37,123.92 126.35,122.53 				"/>
				
					<linearGradient id="SVGID_12_" gradientUnits="userSpaceOnUse" x1="131.7497" y1="87.4013" x2="361.302" y2="87.4013" gradientTransform="matrix(1 5.685041e-03 -5.685041e-03 1 -4.7405 6.4534)">
					<stop  offset="0" style="stop-color:#FFFFFF;stop-opacity:0"/>
					<stop  offset="0.107" style="stop-color:#FAFCFD;stop-opacity:0.107"/>
					<stop  offset="0.2404" style="stop-color:#EAF2F9;stop-opacity:0.2404"/>
					<stop  offset="0.3878" style="stop-color:#D1E3F1;stop-opacity:0.3878"/>
					<stop  offset="0.5454" style="stop-color:#ADCDE6;stop-opacity:0.5454"/>
					<stop  offset="0.7111" style="stop-color:#80B1D9;stop-opacity:0.7111"/>
					<stop  offset="0.8809" style="stop-color:#498FC8;stop-opacity:0.8809"/>
					<stop  offset="1" style="stop-color:#1E75BB"/>
				</linearGradient>
				<polygon class="st14" points="126.5,96.32 356.05,97.63 356.07,94.19 126.52,92.88 				"/>
				
					<linearGradient id="SVGID_13_" gradientUnits="userSpaceOnUse" x1="131.7497" y1="75.7445" x2="345.8291" y2="75.7445" gradientTransform="matrix(1 5.685041e-03 -5.685041e-03 1 -4.7405 6.4534)">
					<stop  offset="0" style="stop-color:#FFFFFF;stop-opacity:0"/>
					<stop  offset="0.107" style="stop-color:#FAFCFD;stop-opacity:0.107"/>
					<stop  offset="0.2404" style="stop-color:#EAF2F9;stop-opacity:0.2404"/>
					<stop  offset="0.3878" style="stop-color:#D1E3F1;stop-opacity:0.3878"/>
					<stop  offset="0.5454" style="stop-color:#ADCDE6;stop-opacity:0.5454"/>
					<stop  offset="0.7111" style="stop-color:#80B1D9;stop-opacity:0.7111"/>
					<stop  offset="0.8809" style="stop-color:#498FC8;stop-opacity:0.8809"/>
					<stop  offset="1" style="stop-color:#1E75BB"/>
				</linearGradient>
				<polygon class="st15" points="126.57,84.67 340.64,85.88 340.66,82.44 126.59,81.23 				"/>
			</g>
			<g>
				<path class="st16" d="M404.04,147.24c-1.39,2.74-2.88,5.43-4.17,8.22c-1.97,4.22-6.39,6.75-11.03,6.45
					c-8.58-0.55-8.6-0.24-9.95,8.99c0.82-1.41,1.79-2.76,2.41-4.26c1.04-2.5,2.68-3.69,5.43-3.18c7.83,1.45,13.96-1.18,18.38-7.76
					c2.28-3.4,5.22-3.9,8.04-2.43c-0.33,2.83,1.78,3.39,3.45,4.7c0.56-1.45,1-2.59,1.5-3.91c2.73,1.67,5.24,3.21,7.73,4.73
					c0.02,1.02,0.02,1.32,0.04,2.34l-3.2,2.1c0.8,2.24,7.73-0.21,3.58,5.33l2.84,2.39c-0.65,2.08-1.31,4.22-1.98,6.36
					c0.2,0.09,0.4,0.18,0.59,0.27c1.06-1.64,2.11-3.27,3.33-5.17c4.13,4.17,8.02,8.07,11.87,12.01c0.63,0.64,1.43,1.4,1.56,2.2
					c1.39,8.56,2.67,17.15,4.11,26.63l-6.5-4.09c0.46,1.92,0.8,3.33,1.43,5.98c-6.12-4.96-13.02-13.11-11.03-12.6
					c-3.1-4.57-10.34-4.87-10.51-11.78c-0.71,1.46-13.86-10.34-22.11-15.35c-2.01,1.82-3.87,3.5-5.77,5.22
					c-1.2,1.09-2.64,1.87-4.17,2.4c-2.21,0.77-6.9,3.25-14.97,7.17c-2.16,1.05-4.29,0.65-5.88,1.35
					c-5.74,2.55-11.15,5.85-16.66,8.91c-1.73,0.68-4.5,1.76-6.23,2.43c-3.24,0.62-5.45,2.75-6.75,6.97
					c-0.76-2.29-1.11-3.35-1.53-4.61c-2.34,4.65-1.28,6.85,3.33,7.7c0.79,0.15,2.01,0.64,2.15,1.2c0.81,3.18,1.71,6.4,1.92,9.65
					c0.32,4.84,0.09,4.85,4.04,4.67c-0.64-0.47-2.99-1.29-3.29-2.57c-1.32-5.69,0.36-9.63,4.51-11.87c0.98,1.1,2.01,2.25,2.95,3.29
					c-0.54,2.03-1.03,3.87-1.52,5.71c0.25,0.39,0.49,0.77,0.74,1.16c1.25-4.79,3.06-3.74,4.65-1.3c1.54,2.36,2.93,4.87,4.05,7.45
					c0.3,0.69-0.66,1.91-1.07,2.97c0.88-0.94,1.9-2.04,3.23-3.46c-0.43-0.03-0.02-0.1,0.05,0.02c1.21,2.12,3.72,4.62,3.26,6.31
					c-0.84,3.09-4.35,3.88-7.51,3.5c-2.09-0.25-5.33,1.56-5.8-2.6c-0.01-0.09-1.47-0.02-2.73-0.03c0.79,1.72,1.36,2.97,1.95,4.25
					l2.71-0.37c1.11,1.82,1.99,3.27,2.88,4.71c0.49-0.1,0.51-0.1,1-0.19c0.63-3.37,2.05-5.7,6.36-4.85c0.16,0.85,0.4,1.92,0.58,3
					c0.44,2.63,4.59,5.91,7.13,5.37c0.84-0.18,1.88-1.08,2.13-1.87c0.24-0.78-0.15-2.04-0.71-2.74c-1.42-1.77-3.08-3.35-5.3-5.69
					c4.35,0.34,6.23,2.45,7.94,4.93c2.89,4.18,5.93,8.26,8.73,12.49c0.68,1.03,0.69,2.49,1.01,3.76c-1.32-0.08-2.66-0.08-3.96-0.27
					c-3.82-0.55-7.63-1.18-11.87-0.97c2.48,1.89,4.96,3.79,7.45,5.68c-0.17,0.37-0.14,0.31-0.31,0.69
					c-8.96-1.68-17.92-3.36-26.88-5.04c-0.08,0.31-0.05,0.19-0.14,0.5c9.81,3.59,19.63,7.19,29.44,10.78
					c-0.1,0.7-0.08,0.57-0.19,1.27c-5.08,0.29-10.17,0.59-15.25,0.88c-0.02,0.36-0.03,0.71-0.05,1.07c0.88,0.08,1.76,0.23,2.63,0.23
					c5.35-0.03,10.7-0.08,16.05-0.14c5.09-0.05,5.09-0.06,3.99-4.87c2.64-1.84,6.85-1.33,8.33,1.27c0.42,0.75,0.03,2.24-0.43,3.17
					c-1.89,3.8-3.95,7.51-6.02,11.41c-0.24-1.13-0.46-2.16-0.85-4.03c-0.71,1.34-1.17,1.91-1.33,2.55
					c-1.41,5.71-1.39,5.75-7.52,6.04c-29.2,1.4-89.16,4.15-91.09,4.14c2.8-1.25,4.65-2.08,7.64-3.42c-4.7-0.97-8.25-1.7-12.78-2.63
					c1.33,1.54,2.02,2.35,2.85,3.3c-3.25,2-6.33,3.89-8.63,5.31c0.77,5.05,1.6,9.54,2.1,14.07c0.52,4.73,1.43,9.24,4.34,13.17
					c0.82,1.11,1.32,2.45,2.07,3.9c-4.92,1.67-8.62,1.52-13.11-1.78c-7.16-5.26-11.34-11.59-13.34-20.12
					c-1.55-6.62-2.97-13.41-7.7-19c-1.87-2.21-2.24-5.78-2.99-8.81c-0.52-2.11,4.48-5.56,7.13-4.87c3.83,1,7.57,2.32,11.39,3.37
					c0.81,0.22,1.78-0.11,2.68-0.2c7.25-0.71,14.51-1.31,21.74-2.2c2.17-0.26,4.24-1.31,6.73-1.33c-0.41,0.45-0.83,0.89-1.65,1.77
					c7.69,0.04,14.96,0.09,22.44,0.13c0.13-1.37,0.27-2.97,0.42-4.58l-0.01,0.03c-0.03,3.73,2.64,1.54,3.93,2.34
					c0.3-0.38,0.6-0.75,0.9-1.13c-0.99-0.55-1.98-1.1-2.97-1.65c0.35-0.59,0.47-0.99,0.73-1.21c3.43-2.79,6.56-7.05,10.43-7.9
					c3.64-0.8,8.08,1.99,12.41,3.28c1-3.13,1.26-5.56-2.93-5.81c-8.51-0.52-15.22-4.54-21.17-10.5c-3.3-3.31-6.86-6.36-10.79-8.9
					c-3.83-2.48-6.26-6.07-6.49-10.07c-0.17-2.92,1.61-6.08,2.96-8.92c1.84-3.86,4.1-7.52,5.57-11.79
					c-1.71,2.08-3.44,4.15-5.14,6.24c-0.82,1.01-1.56,2.1-2.42,3.08c-3.5,4.01-6.62,8.11-3.23,13.93c-0.44,0.39-0.35,0.31-0.79,0.7
					c-7.94-5.97-15.88-11.94-23.87-17.95c4.6-6.65,8.91-13.01,13.38-19.25c0.73-1.02,2.18-2.14,3.31-2.16
					c8.73-0.13,17.46,0,26.43,0.05c-0.01,1.31-0.01,2.19-0.02,3.22c3.07-2.4,5.91-4.62,8.75-6.84c-0.2-0.49-20.17,0.81-30.07,1.7
					c-0.14-0.49-0.11-0.38-0.25-0.87c6.21-3.12,12.37-6.32,18.63-9.33c6.19-2.97,11.57-8.11,19.24-7.84
					c-2.9-0.42-5.8-0.83-8.71-1.25c-0.06-0.41-0.05-0.38-0.11-0.79c5.42-2.47,10.85-4.9,16.24-7.42c6.2-2.88,11.86-0.31,18.13,0.55
					c-5.38-1.8-10.72-3.79-16.2-5.24c-1.01-0.27-2.6,1.65-3.99,2.61c-1.35-4.99,2.05-8.27,4.38-12.24
					c8.52,3.99,14.81,5.73,20.16,8.36c-8.88-5.63-12.4-8.63-21.76-14.57c2.74-4.96,5.27-9.76,8.06-14.41
					c0.4-0.67,2.02-0.93,3.04-0.87c5.34,0.32,10.67,1.04,16.01,1.13c3.64,0.07,5.21,1.51,5.23,5.02c0.01,1.02,0.3,2.04,0.89,3.1
					c1.49-11.42,5.23-22.56,3.62-34.32c0,0-0.06,0.16-0.06,0.16c2.35,1.09,4.63,2.39,7.07,3.23c3.15,1.08,6.39,2.03,9.66,2.61
					c2.73,0.49,4.32,1.84,5.05,4.4c-3.02,0.58-3.07,2.82-3.15,5.22c3.08-0.42,3.08-0.42,3.15-4.71c1.03,5.09,1.97,10.2,3.19,15.24
					c0.17,0.7,1.64,1.35,2.58,1.48c0.37,0.05,1.09-1.32,1.39-2.14c0.21-0.56,0.11-1.33-0.09-1.93c-3.56-10.51,4.9-15.64,10.38-21.62
					c1.99-2.17,6.89-1.53,10.36-2.53c4.13-1.2,6.76,0.59,9.44,3.45c3.42,3.65,7.41,6.75,10.85,10.38c3.07,3.24,4.28,7.49,2.1,11.48
					c-2.76,5.05-3.4,10.4-3.96,15.88c-0.7-1.71-1.4-3.43-2.09-5.15c-0.35,0.02-0.35,0.02-0.7,0.04l-1.27,4.62
					c1.39,0.13,2.78,0.26,4.17,0.39c-0.5,0.76-0.91,1.59-1.5,2.26c-3.78,4.23-7.61,8.42-11.52,12.74c-2.78-2.04-5.19-4.34-8.05-5.76
					c-2.65-1.32-5.76-1.7-8.55-2.46c0.05-0.05,0.69-0.72,1.98-2.08c-5.85,1.25-10.83,2.31-16.45,3.5l4.97-7.54
					c-0.21-0.21-0.17-0.18-0.38-0.39c-2.25,1.36-4.49,2.71-6.72,4.05c0.71-2.93,1.41-5.84,2.3-9.55l-3.93,2.23
					c-2.23-4.57-4.33-8.88-6.44-13.19c-0.37,0.2-0.74,0.39-1.11,0.59C397.89,133.99,400.97,140.62,404.04,147.24z M386.18,173.73
					 M334.48,203.92c-0.12-0.3-0.24-0.61-0.36-0.91c-1.22,0.51-2.44,1.02-3.77,1.57c-0.92-0.63-1.88-1.28-2.83-1.93
					c-0.19,0.22-0.38,0.44-0.56,0.66c1.28,1.15,2.57,2.29,3.81,3.4C332.02,205.75,333.25,204.83,334.48,203.92z"/>
				<path class="st16" d="M327.78,76.21c1.55-0.58,3.1-1.16,5.03-1.88c0.39,3.8,2.5,3.32,5.08,2.22c-0.18-1.33-0.36-2.69-0.53-4
					c10.92,2.83,10.19,13.05,13.57,20.97c-0.47-5.34-0.95-10.68-1.52-17.19c3.88,6.61,7.32,12.16,10.39,17.91
					c0.77,1.44,0.36,3.52,0.56,6.21c0.14,0.04,1.41,0.4,3.1,0.88c-0.7,0.74-1.27,1.35-1.94,2.06c5.94,2.79,6.64,8.97,10.25,14.15
					c-4.58-0.98-8.33-1.78-12.07-2.58c-0.13,0.3-0.26,0.61-0.39,0.91c5.64,3.99,15.05,2.12,18,11.53
					c-4.37-1.95-8.22-3.67-12.34-5.51c0.52,1.02,1.04,2.02,1.75,3.4c-3.25-0.34-6.12-0.43-8.86-1.06c-0.96-0.22-2.41-1.89-2.29-2.7
					c0.87-5.95-2.53-9.89-5.99-13.88c-2.56-2.96-5.17-5.88-7.59-8.96c-0.65-0.83-0.69-2.14-1-3.18c-12.27-0.07-25.01-0.18-37.75-0.2
					c-6.78-0.01-13.57,0.24-20.35,0.14c-2.88-0.04-5.01,0.79-6.7,3.13c-1.06,1.47-2.39,2.76-3.58,4.15
					c-4.21,4.89-4.21,4.89-10.4,1.56c0.44-1.14,0.9-2.31,1.78-4.59c-3.18,1.24-13.32,2.51-22.47,3.61
					c1.97-4.72,8.35-18.06,14.72-18.13c0.94-0.01,17.67-2.67,20.06,1.96c0.36-1.59,0.38-2.78,0.91-3.66
					c0.53-0.89,1.57-1.47,3.31-2.99c-0.94,4.41-1.63,7.64-2.32,10.87c2.03-3.25,2.42-7.54,7.98-7.76c3.97-0.16,7.8-1.37,11.58,2.56
					c0.23-2.41,0.33-3.48,0.44-4.72c1.7-0.28,3.59-0.59,5.57-0.92c-0.76,0.94-1.35,1.67-1.94,2.4c0.85,0.42,1.74,1.26,2.55,1.2
					c7.4-0.62,14.8-1.28,22.16-2.2c2.71-0.34,3.22-3.47,1.16-5.76L327.78,76.21z"/>
				<path class="st17" d="M270.82,271.37c-2.28-1.19-3.54-2.29-4.93-2.51c-7.95-1.24-15.94-2.27-24.95-3.52
					c3.52-3.97,6.36-7.24,9.26-10.45c8.56-9.45,17.17-18.84,25.7-28.31c3.88-4.31,5.06-4.41,9.82-1.4
					c6.25,3.96,25.84,16.3,28.32,18.56C300.97,252.19,282.83,263.61,270.82,271.37z"/>
				<path class="st17" d="M180.95,329.78c11.7-16.09,22.22-32.92,36.6-46.67c0.87-0.84,2.13-1.48,3.32-1.75
					c7.48-1.75,14.96-3.45,22.5-4.94c0.93-0.18,2.69,0.73,3.11,1.59c1.65,3.37,2.91,6.92,4.45,10.74
					C227.51,302.48,204.23,316.13,180.95,329.78z"/>
				<path class="st16" d="M455.01,203.23c-4.61-7.5-1.85-12.55,3.02-18.76c4.88-6.23,7.06-14.71,9.78-22.43
					c1.4-3.97,3.25-5.45,7.27-4.5c1.89,0.44,3.86,0.54,6.46,0.89c-1.16,2.02-2.13,3.69-3.52,6.11c1.57-1.21,2.51-1.93,4.1-3.17
					c-0.61,1.76-0.92,2.81-1.34,3.82c-5.71,13.72-11.49,27.41-17.12,41.16c-1.28,3.13-2.44,6.09-6.76,6.1
					c0.24,1.64,0.44,2.99,0.69,4.69c-1.89,0.7-3.79,1.4-6.29,2.33c-0.58-8.43-4.24-16.2-1.81-24.36c0.39-0.07,0.79-0.15,1.18-0.22
					c1.01,2.83,2.02,5.65,3.03,8.48C454.13,203.32,454.57,203.27,455.01,203.23z"/>
				<path class="st17" d="M138.5,369c0.87-5.08,1.71-10.18,2.66-15.27c0.13-0.68,0.69-1.62,1.26-1.82c4.57-1.58,3.82-5.04,3.46-8.65
					c-0.74-7.39-0.62-7.4,6.37-9.88c3.04-1.08,6.08-2.15,10.22-3.61c-4.74,6.11-8.77,11.3-12.8,16.5c0.13,0.21,0.26,0.41,0.4,0.62
					c3.21-1.89,6.41-3.78,10.39-6.13c-2.06,5.91-3.87,11.1-5.68,16.28c-0.52,1.48-1.04,2.95-1.56,4.42
					C150.05,370.5,148.76,371.19,138.5,369z"/>
				<path class="st16" d="M382.09,102.63c0,0,0.05-0.16,0.06-0.16c-0.79,1.46-2.37,3.01-2.23,4.38c0.73,7.22,0.63,9.76-1.77,16.6
					c-5.93-15.67-14.04-30.14-23.95-44.34c4.43,0.31,8.58-1.78,11.73,3.52c2.67,4.5,6.79,8.14,10.26,12.15
					c-2.25-2.57-4.53-2.14-7.24-0.28c2.65,2.95,4.95,0.71,7.23,0.22C378.14,97.36,380.12,99.99,382.09,102.63z"/>
				<path class="st16" d="M486.74,142.12c-2.85,1.5-5.22,2.74-7.6,3.99c0.06,0.2,0.11,0.39,0.17,0.59c2.53-0.56,5.07-1.12,7.6-1.68
					c0.29,0.29,0.57,0.59,0.86,0.88c-2.34,3.51-3.92,8.5-7.21,10.19c-4.72,2.44-10.72-0.9-13.81-5.7c1.92-0.54,3.78-1.06,6.31-1.77
					c-1.16-0.53-1.79-0.82-2.52-1.16c0.34-1.89,0.66-3.8,1.05-5.7c0.36-1.77,0.81-3.52,1.32-5.73
					C477.56,138.09,481.91,140,486.74,142.12z"/>
				<path class="st17" d="M192.26,308.74c-8.54,10.92-17.08,21.83-25.62,32.75c-0.19-0.11-0.38-0.22-0.56-0.33
					c0.85-5.64,1.58-11.3,2.63-16.91c0.22-1.2,1.38-2.51,2.46-3.21c6.79-4.36,13.68-8.56,20.54-12.82
					C191.9,308.39,192.08,308.57,192.26,308.74z"/>
				<path class="st18" d="M159.59,196.01c22.79-6.06,45.57-12.21,68.42-18.03c2.43-0.62,6-0.24,7.91,1.19
					c7.73,5.81,15.01,12.21,23.96,19.64c-34.71-0.2-67.43-0.38-100.15-0.57C159.68,197.49,159.63,196.75,159.59,196.01z"/>
				<path class="st19" d="M260.5,232.11c-10.58,7.6-21.15,15.2-32.5,23.35c1.33-4.84,2.4-8.9,3.6-12.92
					c0.19-0.64,0.84-1.4,1.46-1.63c8.95-3.32,17.92-6.56,26.89-9.82C260.14,231.43,260.32,231.77,260.5,232.11z"/>
				<path class="st19" d="M119.82,140.18c-5.16,3.71-10.31,7.41-15.84,11.38c0.65-2.36,1.17-4.34,1.76-6.3
					c0.09-0.31,0.41-0.68,0.71-0.79c4.36-1.62,8.74-3.2,13.11-4.79C119.64,139.85,119.73,140.02,119.82,140.18z"/>
				<path class="st17" d="M204.96,321.7c-11.01,8.88-22.01,17.75-33.02,26.63c5.96-15.17,20.4-19.76,32.27-27.56
					C204.45,321.08,204.7,321.39,204.96,321.7z"/>
				<path class="st17" d="M151.08,376.15c-2.47,6.23-4.6,11.6-6.74,16.98c-6.08-2.42-7.58-5.32-5.98-11.46
					c0.17-0.64,0.75-1.44,1.32-1.66C143.18,378.74,146.72,377.61,151.08,376.15z"/>
				<path class="st17" d="M233.34,275.57c7.3-11.57,18.32-6.05,28.15-6.16C252.34,272.61,243.35,276.53,233.34,275.57z"/>
				<path class="st20" d="M166.66,238.62c-8.81,6.36-17.62,12.71-27.09,19.54c-6.2-3.98-12.49-8.02-20.54-13.19
					c17.04-2.79,32.02-5.25,47-7.71C166.24,237.72,166.45,238.17,166.66,238.62z"/>
				<path class="st17" d="M155.09,367.32c1.45-5.01,3.26-9.96,4.25-15.06c0.96-4.91,3.71-6.66,8.77-6.46
					c-3.97,7.45-7.84,14.71-11.71,21.98C155.96,367.62,155.52,367.47,155.09,367.32z"/>
				<path class="st20" d="M295.34,172.84c9.29,0.05,17.41,0.1,25.54,0.15c0.06,0.42,0.11,0.84,0.17,1.26
					c-5.15,1.36-10.27,3.6-15.46,3.76C302.49,178.1,299.29,174.95,295.34,172.84z"/>
				<path class="st16" d="M228.07,271.57c2.27-5.64,4.45-11.09,6.81-16.98c1.92,2.1,3.48,3.8,5.38,5.87
					C236.24,264.13,232.36,267.66,228.07,271.57z"/>
				<path class="st21" d="M320.93,169.5c0.8-1.02,1.59-2.04,2.39-3.06c5.61-7.15,5.85-7.2,15.13-3.01
					c-5.93,2.35-11.56,4.59-17.19,6.82C321.15,170,321.04,169.75,320.93,169.5z"/>
				<path class="st22" d="M227.3,212.39c-6.03,1.65-11.33,3.1-16.63,4.56c-0.13-0.15-0.27-0.29-0.4-0.44
					c3.19-2.97,6.38-5.94,9.88-9.19C222.41,208.92,224.56,210.45,227.3,212.39z"/>
				<path class="st16" d="M347.34,202.76c1.44-0.62,2.05-3.77,3.48-4.39c4.22-1.85,18.56-7.85,22.8-9.7
					c0.11,0.17-9.07,7.03-8.97,7.2c-5.24,4.13-10.47,8.25-16.38,12.91C347.9,206.41,347.62,204.59,347.34,202.76z"/>
				<path class="st23" d="M174.52,306.18c-5.49,7.78-7.37,8.27-19.89,5.02C161.56,309.45,167.72,307.9,174.52,306.18z"/>
				<path class="st16" d="M201.25,293.63c-5.31,3.9-10.61,7.79-16.07,11.8c-0.25-5.68,0.57-7.02,5.03-8.6
					c3.53-1.25,7.05-2.52,10.58-3.78C200.94,293.24,201.1,293.43,201.25,293.63z"/>
				<path class="st17" d="M229.66,306.67c-5.33,3.83-10.66,7.65-16.42,11.79c0.13-4.48,0.9-7.56,5.39-8.67
					c3.72-0.92,7.27-2.49,10.9-3.77C229.56,306.24,229.61,306.45,229.66,306.67z"/>
				<path class="st23" d="M82.98,192.85c13.94,11.5,26.02,21.47,40.82,33.68c-13.59-2.97-23.94-4.68-33.85-7.77
					c-2.73-0.85-5.12-5.59-5.98-8.98C82.82,205.23,83.31,200.26,82.98,192.85z"/>
				<path class="st16" d="M327.31,275.64c-6.62,0.5-23.78-1.03-30.4-0.53c-0.06-0.53-0.12-1.05-0.18-1.58
					c5.28-0.94,10.53-2.11,15.85-2.66c1.28-0.13,12.36-1.71,13.76-0.74C326.36,270.13,327.31,275.64,327.31,275.64z"/>
				<path class="st16" d="M348.92,127.56c-0.46-5.33-0.88-10.09-1.29-14.86c0.18-0.08,0.35-0.16,0.53-0.24
					c2.08,4.16,4.15,8.32,6.43,12.9C352.77,126.06,351.13,126.7,348.92,127.56z"/>
				<path class="st24" d="M141.85,284.36c-7.26,14.69-7.77,14.93-32.81,15.86C120.67,294.6,130.49,289.85,141.85,284.36z"/>
				<path class="st17" d="M132.53,379.12c0.03-5.42,0.06-9.96,0.08-14.55C136.03,369.77,136.12,373.51,132.53,379.12z"/>
				<path class="st16" d="M485.63,126.37c1.36,4.22-1.06,7.9-1.53,12.01C481.51,137.09,482.11,131.88,485.63,126.37z"/>
				<path class="st16" d="M465.56,148.8c0.58-4.23,1.06-7.78,1.54-11.33c0.64,0.09,1.27,0.19,1.91,0.28
					c-0.24,1.46-0.48,2.91-0.81,4.96C470.52,145.33,470.24,147.55,465.56,148.8z"/>
				<path class="st16" d="M138.79,331.52c3.38,13.71-1.23,22.02-13.27,27.92C130.02,349.97,134.05,341.5,138.79,331.52z"/>
				<path class="st25" d="M235.8,112.81c-18.3-2.9-36.59-5.81-54.89-8.71c0.04-0.85,0.08-1.71,0.11-2.56
					c14.98-0.93,29.97-2.63,44.91-2.28c4.22,0.1,8.3,6.17,12.45,9.51C237.52,110.11,236.66,111.46,235.8,112.81z"/>
				<path class="st22" d="M139.73,326.59c-1.15-0.91-1.87-1.39-2.49-1.98c-0.81-0.78-1.55-1.64-2.46-2.63
					c2.26-1.23,4.28-2.32,7.17-3.9C141.13,321.23,140.51,323.58,139.73,326.59z"/>
				<path class="st18" d="M309.44,130.11c10.01,2.47,19.43,4.8,29.56,7.31C319.62,149.67,313.61,148.29,309.44,130.11z"/>
				<path class="st26" d="M221.6,254.26c-2.73,9.27-4.56,15.51-6.78,23.05c-4.49-4.29-7.99-7.62-12.42-11.85
					C208.75,261.76,214.04,258.67,221.6,254.26z"/>
				<path class="st26" d="M361.71,250.01c-2.73,9.27-4.56,15.51-6.78,23.05c-4.49-4.29-7.99-7.62-12.42-11.85
					C348.86,257.51,354.15,254.42,361.71,250.01z"/>
				<path class="st26" d="M212.21,48.75c-2.73,9.27-4.56,15.51-6.78,23.05c-4.49-4.29-7.99-7.62-12.42-11.85
					C199.35,56.26,204.65,53.16,212.21,48.75z"/>
				<path class="st16" d="M100.4,380.26c7.82-3.49,13.78-6.15,20.59-9.19c1.37,2.89,2.62,5.55,4.41,9.33
					C117.19,380.35,109.94,380.31,100.4,380.26z"/>
				<path class="st20" d="M77.09,358.11c-4.4-4.14-7.62-7.18-11.61-10.93c5.81-3.29,10.7-6.07,17.21-9.76
					C80.66,344.94,79.09,350.71,77.09,358.11z"/>
				<path class="st16" d="M160.95,317.27c1.93,2.19,3.33,3.79,5.03,5.74c-2.5,0.69-4.42,1.23-7.13,1.98
					C159.61,322.2,160.19,320.05,160.95,317.27z"/>
				<path class="st24" d="M262.13,155.73c0.65-9.82,1.17-17.54,2.03-30.5c12.08,14.03,21.75,25.27,31.41,36.5
					c-0.51,1.13-1.01,2.26-1.52,3.4C284.08,162.19,274.11,159.26,262.13,155.73z"/>
				<path class="st24" d="M212.45,142.69c3.13-0.29,5.6-0.52,9.73-0.91c-2.24,9.74-4.03,17.53-5.82,25.33
					c-0.44-0.28-0.87-0.55-1.31-0.83C214.24,158.91,213.43,151.54,212.45,142.69z"/>
				<path class="st27" d="M154.88,280.78c8.29-1.44,14.28-2.48,22.71-3.94c-4.06,5.88-6.98,10.1-10.62,15.38
					C163.07,288.53,159.71,285.36,154.88,280.78z"/>
				<path class="st23" d="M155.74,112.44c-5.3,1.46-10.6,2.92-16.38,4.51c-1.45-3.76-2.7-6.98-4.47-11.56c7.84,2,14.52,3.7,21.2,5.4
					C155.97,111.34,155.85,111.89,155.74,112.44z"/>
				<path class="st16" d="M327.71,76.17c-0.74,0.24-2.08,0.38-2.13,0.73c-1.05,6.36-4.3,2.34-6.86,1.52
					c-0.48-0.15-0.98-0.27-1.52-0.95c3.52-0.43,7.04-0.86,10.57-1.28C327.78,76.21,327.71,76.17,327.71,76.17z"/>
				<path class="st25" d="M118.67,342.4c-5.73,7.07-10.38,12.8-15.89,19.61C103.63,351.58,106.49,344.44,118.67,342.4z"/>
				<path class="st28" d="M403.88,113.38c-0.07,4.3-0.07,4.3-3.15,4.71c0.08-2.4,0.13-4.64,3.15-5.22
					C403.88,113.04,403.88,113.21,403.88,113.38z"/>
				<path class="st16" d="M487.9,140.25c0.4-2.23,0.8-4.46,1.2-6.69c3.31,2.45,0.75,4.57,0.52,6.79
					C489.04,140.32,488.47,140.29,487.9,140.25z"/>
				<path class="st28" d="M404.04,147.24c-3.07-6.63-6.15-13.26-9.22-19.89c0.37-0.2,0.74-0.39,1.11-0.59
					c2.1,4.31,4.21,8.62,6.44,13.19c1.14-0.64,2.05-1.16,3.93-2.23c-0.89,3.71-1.59,6.62-2.3,9.55
					C403.98,147.3,404.04,147.24,404.04,147.24z"/>
				<path class="st28" d="M386.18,173.73"/>
				<path class="st28" d="M450.21,142.97c-1.39-0.13-2.78-0.26-4.17-0.39c0.42-1.54,0.85-3.08,1.27-4.62c0.28,0.1,0.56,0.2,0.84,0.3
					c0.65,1.61,1.3,3.21,1.96,4.81C450.11,143.06,450.21,142.97,450.21,142.97z"/>
				<path class="st28" d="M334.48,203.92c-1.23,0.92-2.45,1.83-3.72,2.78c-1.24-1.11-2.52-2.25-3.81-3.4
					c0.19-0.22,0.38-0.44,0.56-0.66c0.96,0.65,1.91,1.31,2.83,1.93c1.33-0.55,2.55-1.06,3.77-1.57
					C334.24,203.31,334.36,203.61,334.48,203.92z"/>
				<path class="st28" d="M376.17,94.72c-2.28,0.49-4.58,2.73-7.23-0.22c2.71-1.85,5-2.28,7.24,0.28
					C376.19,94.8,376.17,94.72,376.17,94.72z"/>
				<path class="st16" d="M348.13,198.25l5.19,6.55l-6.9,5.44l5.16,4.97l6.67,9.12l6.19,5.66l10.55,10.76
					c0,0,12.79,17.06,11.75,16.58s-26.68-1.06-27.09-1.12s-25.37-21.89-25.37-21.89l-5.54-12.17l-5.07-20.26l18.6-5.35
					L348.13,198.25z"/>
				<polygon class="st16" points="398.47,173.43 443.51,215.15 451.29,219.46 457.58,217.13 462.22,209.44 465.37,181.75 
					454.74,199.98 442.91,184.43 427.56,166.01 426.85,159.41 407.8,164.22 				"/>
				<polygon class="st16" points="469.55,156.87 475.75,152.77 480.29,154.86 482.12,161.37 458.37,215.82 448.68,197.15 				"/>
				<polygon class="st16" points="398.83,109.88 403.62,112.12 408.06,129.57 411.69,127.92 410.18,119.76 413.26,112.83 
					420.97,103.32 436.8,100.43 455.2,118.4 454.93,125 451.61,133.52 450.21,142.97 437.19,157.97 420.59,149.75 406.12,151.17 
					397.31,137.88 392.43,125.62 399.71,123.57 398.81,112.84 				"/>
				<path class="st20" d="M392.03,218.89c-8.81,6.36-17.62,12.71-27.09,19.54c-6.2-3.98-12.49-8.02-20.54-13.19
					C361.44,222.45,391.82,218.44,392.03,218.89z"/>
			</g>
		</g>
		<polygon class="st16" points="402.28,120.32 402.33,110.13 378.94,98.43 362.81,79.59 337.36,72.55 322.48,76.83 280.53,80.5 
			267.2,83.75 269.35,92.4 300.81,92.57 326.1,90.73 362.4,103.21 389.63,111.92 		"/>
		<path class="st16" d="M472.59,156.49c-0.09-0.27-7.03-7.69-7.03-7.69l1.54-11.33l1.91,0.28l2.31,5.42l1.59-7.12l0.67-4.13
			l4.46-6.94l4.54-2.43l3.48,4.68l3.32,5.18l1.34,3.32l-3.25,10.66l-7.15,3.7L472.59,156.49z"/>
		<path class="st16" d="M351.24,95.15l6.9,22.7l14.22,13.88l6.89,8c0,0,10.97-1.04,10.07-3.34c-0.9-2.3-1.14-23.61-1.14-23.61
			l-8.74-8.2L351.24,95.15z"/>
		<polygon class="st16" points="295.12,212.59 301.6,232.06 310.46,238.44 337.9,261.15 352.02,271.83 352.15,248.85 316.41,215.01 
			315.29,199.19 		"/>
		<polygon class="st16" points="350.86,237.1 382.97,251.56 396.52,270.96 390.06,285.54 386.64,288.13 367.06,285.64 
			346.94,272.55 344.86,241.94 		"/>
	</g>
	<g>
		<polygon class="st16" points="522.23,278.39 507.31,295.48 491.07,295.47 506.01,278.36 492.35,262.36 508.56,262.37 		"/>
		<polygon class="st17" points="497.77,278.39 482.84,295.48 462.27,295.47 477.21,278.36 463.55,262.36 484.09,262.37 		"/>
		<polygon class="st23" points="544.91,278.43 529.99,295.52 516.85,295.7 531.79,278.59 518.13,262.58 531.24,262.41 		"/>
	</g>
</g>
</svg>
